# This file uses centimeters as units for non-parametric coordinates.

mtllib crownpallet.mtl
g default
v -0.495553 0.120087 0.442327
v 0.490623 0.120087 0.442327
v -0.495553 0.768379 0.442327
v 0.490623 0.768379 0.442327
v -0.495553 0.768379 -0.442326
v 0.490623 0.768379 -0.442326
v -0.495553 0.120087 -0.442326
v 0.490623 0.120087 -0.442326
v -0.495553 0.021627 0.484427
v 0.490623 0.021627 0.484427
v -0.495553 0.100395 0.484427
v 0.490623 0.100395 0.484427
v -0.495553 0.100395 0.425351
v 0.490623 0.100395 0.425351
v -0.495553 0.021627 0.425351
v 0.490623 0.021627 0.425351
v 0.392163 0.100395 0.492304
v 0.490623 0.100395 0.492304
v 0.392163 0.119692 0.492304
v 0.490623 0.119692 0.492304
v 0.392163 0.119692 -0.492304
v 0.490623 0.119692 -0.492304
v 0.392163 0.100395 -0.492304
v 0.490623 0.100395 -0.492304
v 0.244471 0.100395 0.492304
v 0.342932 0.100395 0.492304
v 0.244471 0.119692 0.492304
v 0.342932 0.119692 0.492304
v 0.244471 0.119692 -0.492304
v 0.342932 0.119692 -0.492304
v 0.244471 0.100395 -0.492304
v 0.342932 0.100395 -0.492304
v 0.096780 0.100395 0.492304
v 0.195241 0.100395 0.492304
v 0.096780 0.119692 0.492304
v 0.195241 0.119692 0.492304
v 0.096780 0.119692 -0.492304
v 0.195241 0.119692 -0.492304
v 0.096780 0.100395 -0.492304
v 0.195241 0.100395 -0.492304
v -0.050911 0.100395 0.492304
v 0.047550 0.100395 0.492304
v -0.050911 0.119692 0.492304
v 0.047550 0.119692 0.492304
v -0.050911 0.119692 -0.492304
v 0.047550 0.119692 -0.492304
v -0.050911 0.100395 -0.492304
v 0.047550 0.100395 -0.492304
v -0.198603 0.100395 0.492304
v -0.100142 0.100395 0.492304
v -0.198603 0.119692 0.492304
v -0.100142 0.119692 0.492304
v -0.198603 0.119692 -0.492304
v -0.100142 0.119692 -0.492304
v -0.198603 0.100395 -0.492304
v -0.100142 0.100395 -0.492304
v -0.346294 0.100395 0.492304
v -0.247833 0.100395 0.492304
v -0.346294 0.119692 0.492304
v -0.247833 0.119692 0.492304
v -0.346294 0.119692 -0.492304
v -0.247833 0.119692 -0.492304
v -0.346294 0.100395 -0.492304
v -0.247833 0.100395 -0.492304
v -0.495553 0.100395 0.492304
v -0.397092 0.100395 0.492304
v -0.495553 0.119692 0.492304
v -0.397092 0.119692 0.492304
v -0.495553 0.119692 -0.492304
v -0.397092 0.119692 -0.492304
v -0.495553 0.100395 -0.492304
v -0.397092 0.100395 -0.492304
v -0.495553 0.002330 0.492304
v -0.397092 0.002330 0.492304
v -0.495553 0.021627 0.492304
v -0.397092 0.021627 0.492304
v -0.495553 0.021627 -0.492304
v -0.397092 0.021627 -0.492304
v -0.495553 0.002330 -0.492304
v -0.397092 0.002330 -0.492304
v -0.050911 0.002330 0.492304
v 0.047550 0.002330 0.492304
v -0.050911 0.021627 0.492304
v 0.047550 0.021627 0.492304
v -0.050911 0.021627 -0.492304
v 0.047550 0.021627 -0.492304
v -0.050911 0.002330 -0.492304
v 0.047550 0.002330 -0.492304
v 0.392163 0.002330 0.492304
v 0.490623 0.002330 0.492304
v 0.392163 0.021627 0.492304
v 0.490623 0.021627 0.492304
v 0.392163 0.021627 -0.492304
v 0.490623 0.021627 -0.492304
v 0.392163 0.002330 -0.492304
v 0.490623 0.002330 -0.492304
v -0.495553 0.021627 0.029538
v 0.490623 0.021627 0.029538
v -0.495553 0.100395 0.029538
v 0.490623 0.100395 0.029538
v -0.495553 0.100395 -0.029538
v 0.490623 0.100395 -0.029538
v -0.495553 0.021627 -0.029538
v 0.490623 0.021627 -0.029538
v -0.495553 0.021627 -0.433228
v 0.490623 0.021627 -0.433228
v -0.495553 0.100395 -0.433228
v 0.490623 0.100395 -0.433228
v -0.495553 0.100395 -0.492304
v 0.490623 0.100395 -0.492304
v -0.495553 0.021627 -0.492304
v 0.490623 0.021627 -0.492304
vt 0.371644 0.728049
vt 0.118779 0.728049
vt 0.118779 0.562826
vt 0.371644 0.562826
vt 0.371644 0.309960
vt 0.597107 0.309960
vt 0.597107 0.562826
vt 0.849973 0.562826
vt 0.849973 0.728050
vt 0.597107 0.728050
vt 0.597106 0.980916
vt 0.371643 0.980915
vt 0.371645 0.144737
vt 0.597107 0.144737
vt 0.923754 0.919431
vt 0.923742 0.003296
vt 0.996917 0.003295
vt 0.996928 0.919430
vt 0.868873 0.003296
vt 0.868873 0.919431
vt 0.923754 0.919431
vt 0.923754 0.003296
vt 0.996928 0.919431
vt 0.996928 0.003296
vt 0.868873 0.919431
vt 0.868862 0.003296
vt 0.868873 0.992605
vt 0.923754 0.992605
vt 0.923754 0.992605
vt 0.868873 0.992605
vt 0.108551 0.110143
vt 0.020931 0.110143
vt 0.020931 0.092971
vt 0.108551 0.092971
vt 0.020931 0.986337
vt 0.108551 0.986337
vt 0.108551 0.110143
vt 0.020931 0.110143
vt 0.108551 0.092971
vt 0.020931 0.092971
vt 0.108551 0.986337
vt 0.020931 0.986337
vt 0.003760 0.986337
vt 0.003760 0.110143
vt 0.003760 0.110143
vt 0.003760 0.986337
vt 0.108551 0.110143
vt 0.020931 0.110143
vt 0.020931 0.092971
vt 0.108551 0.092971
vt 0.020931 0.986337
vt 0.108551 0.986337
vt 0.108551 0.110143
vt 0.020931 0.110143
vt 0.108551 0.092971
vt 0.020931 0.092971
vt 0.108551 0.986337
vt 0.020931 0.986337
vt 0.003760 0.986337
vt 0.003760 0.110143
vt 0.003760 0.110143
vt 0.003760 0.986337
vt 0.108551 0.110143
vt 0.020931 0.110143
vt 0.020931 0.092971
vt 0.108551 0.092971
vt 0.020931 0.986337
vt 0.108551 0.986337
vt 0.108551 0.110143
vt 0.020931 0.110143
vt 0.108551 0.092971
vt 0.020931 0.092971
vt 0.108551 0.986337
vt 0.020931 0.986337
vt 0.003760 0.986337
vt 0.003760 0.110143
vt 0.003760 0.110143
vt 0.003760 0.986337
vt 0.108551 0.110143
vt 0.020931 0.110143
vt 0.020931 0.092971
vt 0.108551 0.092971
vt 0.020931 0.986337
vt 0.108551 0.986337
vt 0.108551 0.110143
vt 0.020931 0.110143
vt 0.108551 0.092971
vt 0.020931 0.092971
vt 0.108551 0.986337
vt 0.020931 0.986337
vt 0.003760 0.986337
vt 0.003760 0.110143
vt 0.003760 0.110143
vt 0.003760 0.986337
vt 0.108551 0.110143
vt 0.020931 0.110143
vt 0.020931 0.092971
vt 0.108551 0.092971
vt 0.020931 0.986337
vt 0.108551 0.986337
vt 0.108551 0.110143
vt 0.020931 0.110143
vt 0.108551 0.092971
vt 0.020931 0.092971
vt 0.108551 0.986337
vt 0.020931 0.986337
vt 0.003760 0.986337
vt 0.003760 0.110143
vt 0.003760 0.110143
vt 0.003760 0.986337
vt 0.108551 0.110143
vt 0.020931 0.110143
vt 0.020931 0.092971
vt 0.108551 0.092971
vt 0.020931 0.986337
vt 0.108551 0.986337
vt 0.108551 0.110143
vt 0.020931 0.110143
vt 0.108551 0.092971
vt 0.020931 0.092971
vt 0.108551 0.986337
vt 0.020931 0.986337
vt 0.003760 0.986337
vt 0.003760 0.110143
vt 0.003760 0.110143
vt 0.003760 0.986337
vt 0.108551 0.110143
vt 0.020931 0.110143
vt 0.020931 0.092971
vt 0.108551 0.092971
vt 0.020931 0.986337
vt 0.108551 0.986337
vt 0.108551 0.110143
vt 0.020931 0.110143
vt 0.108551 0.092971
vt 0.020931 0.092971
vt 0.108551 0.986337
vt 0.020931 0.986337
vt 0.003760 0.986337
vt 0.003760 0.110143
vt 0.003760 0.110143
vt 0.003760 0.986337
vt 0.108551 0.110143
vt 0.020931 0.110143
vt 0.020931 0.092971
vt 0.108551 0.092971
vt 0.020931 0.986337
vt 0.108551 0.986337
vt 0.108551 0.110143
vt 0.020931 0.110143
vt 0.108551 0.092971
vt 0.020931 0.092971
vt 0.108551 0.986337
vt 0.020931 0.986337
vt 0.003760 0.986337
vt 0.003760 0.110143
vt 0.003760 0.110143
vt 0.003760 0.986337
vt 0.108551 0.110143
vt 0.020931 0.110143
vt 0.020931 0.092971
vt 0.108551 0.092971
vt 0.020931 0.986337
vt 0.108551 0.986337
vt 0.108551 0.110143
vt 0.020931 0.110143
vt 0.108551 0.092971
vt 0.020931 0.092971
vt 0.108551 0.986337
vt 0.020931 0.986337
vt 0.003760 0.986337
vt 0.003760 0.110143
vt 0.003760 0.110143
vt 0.003760 0.986337
vt 0.108551 0.110143
vt 0.020931 0.110143
vt 0.020931 0.092971
vt 0.108551 0.092971
vt 0.020931 0.986337
vt 0.108551 0.986337
vt 0.108551 0.110143
vt 0.020931 0.110143
vt 0.108551 0.092971
vt 0.020931 0.092971
vt 0.108551 0.986337
vt 0.020931 0.986337
vt 0.003760 0.986337
vt 0.003760 0.110143
vt 0.003760 0.110143
vt 0.003760 0.986337
vt 0.923754 0.919431
vt 0.923742 0.003296
vt 0.996917 0.003295
vt 0.996928 0.919430
vt 0.868873 0.003296
vt 0.868873 0.919431
vt 0.923754 0.919431
vt 0.923754 0.003296
vt 0.996928 0.919431
vt 0.996928 0.003296
vt 0.868873 0.919431
vt 0.868862 0.003296
vt 0.868873 0.992605
vt 0.923754 0.992605
vt 0.923754 0.992605
vt 0.868873 0.992605
vt 0.923754 0.919431
vt 0.923742 0.003296
vt 0.996917 0.003295
vt 0.996928 0.919430
vt 0.868873 0.003296
vt 0.868873 0.919431
vt 0.923754 0.919431
vt 0.923754 0.003296
vt 0.996928 0.919431
vt 0.996928 0.003296
vt 0.868873 0.919431
vt 0.868862 0.003296
vt 0.868873 0.992605
vt 0.923754 0.992605
vt 0.923754 0.992605
vt 0.868873 0.992605
vn 0.000000 0.000000 1.000000
vn 0.000000 0.000000 1.000000
vn 0.000000 0.000000 1.000000
vn 0.000000 0.000000 1.000000
vn 0.000000 1.000000 0.000000
vn 0.000000 1.000000 0.000000
vn 0.000000 1.000000 0.000000
vn 0.000000 1.000000 0.000000
vn 0.000000 0.000000 -1.000000
vn 0.000000 0.000000 -1.000000
vn 0.000000 0.000000 -1.000000
vn 0.000000 0.000000 -1.000000
vn 0.000000 -1.000000 0.000000
vn 0.000000 -1.000000 0.000000
vn 0.000000 -1.000000 0.000000
vn 0.000000 -1.000000 0.000000
vn 1.000000 0.000000 0.000000
vn 1.000000 0.000000 0.000000
vn 1.000000 0.000000 0.000000
vn 1.000000 0.000000 0.000000
vn -1.000000 0.000000 0.000000
vn -1.000000 0.000000 0.000000
vn -1.000000 0.000000 0.000000
vn -1.000000 0.000000 0.000000
vn 0.000000 0.000000 1.000000
vn 0.000000 0.000000 1.000000
vn 0.000000 0.000000 1.000000
vn 0.000000 0.000000 1.000000
vn 0.000000 1.000000 0.000000
vn 0.000000 1.000000 0.000000
vn 0.000000 1.000000 0.000000
vn 0.000000 1.000000 0.000000
vn 0.000000 0.000000 -1.000000
vn 0.000000 0.000000 -1.000000
vn 0.000000 0.000000 -1.000000
vn 0.000000 0.000000 -1.000000
vn 0.000000 -1.000000 0.000000
vn 0.000000 -1.000000 0.000000
vn 0.000000 -1.000000 0.000000
vn 0.000000 -1.000000 0.000000
vn 1.000000 0.000000 0.000000
vn 1.000000 0.000000 0.000000
vn 1.000000 0.000000 0.000000
vn 1.000000 0.000000 0.000000
vn -1.000000 0.000000 0.000000
vn -1.000000 0.000000 0.000000
vn -1.000000 0.000000 0.000000
vn -1.000000 0.000000 0.000000
vn 0.000000 0.000000 1.000000
vn 0.000000 0.000000 1.000000
vn 0.000000 0.000000 1.000000
vn 0.000000 0.000000 1.000000
vn 0.000000 1.000000 0.000000
vn 0.000000 1.000000 0.000000
vn 0.000000 1.000000 0.000000
vn 0.000000 1.000000 0.000000
vn 0.000000 0.000000 -1.000000
vn 0.000000 0.000000 -1.000000
vn 0.000000 0.000000 -1.000000
vn 0.000000 0.000000 -1.000000
vn 0.000000 -1.000000 0.000000
vn 0.000000 -1.000000 0.000000
vn 0.000000 -1.000000 0.000000
vn 0.000000 -1.000000 0.000000
vn 1.000000 0.000000 0.000000
vn 1.000000 0.000000 0.000000
vn 1.000000 0.000000 0.000000
vn 1.000000 0.000000 0.000000
vn -1.000000 0.000000 0.000000
vn -1.000000 0.000000 0.000000
vn -1.000000 0.000000 0.000000
vn -1.000000 0.000000 0.000000
vn 0.000000 0.000000 1.000000
vn 0.000000 0.000000 1.000000
vn 0.000000 0.000000 1.000000
vn 0.000000 0.000000 1.000000
vn 0.000000 1.000000 0.000000
vn 0.000000 1.000000 0.000000
vn 0.000000 1.000000 0.000000
vn 0.000000 1.000000 0.000000
vn 0.000000 0.000000 -1.000000
vn 0.000000 0.000000 -1.000000
vn 0.000000 0.000000 -1.000000
vn 0.000000 0.000000 -1.000000
vn 0.000000 -1.000000 0.000000
vn 0.000000 -1.000000 0.000000
vn 0.000000 -1.000000 0.000000
vn 0.000000 -1.000000 0.000000
vn 1.000000 0.000000 0.000000
vn 1.000000 0.000000 0.000000
vn 1.000000 0.000000 0.000000
vn 1.000000 0.000000 0.000000
vn -1.000000 0.000000 0.000000
vn -1.000000 0.000000 0.000000
vn -1.000000 0.000000 0.000000
vn -1.000000 0.000000 0.000000
vn 0.000000 0.000000 1.000000
vn 0.000000 0.000000 1.000000
vn 0.000000 0.000000 1.000000
vn 0.000000 0.000000 1.000000
vn 0.000000 1.000000 0.000000
vn 0.000000 1.000000 0.000000
vn 0.000000 1.000000 0.000000
vn 0.000000 1.000000 0.000000
vn 0.000000 0.000000 -1.000000
vn 0.000000 0.000000 -1.000000
vn 0.000000 0.000000 -1.000000
vn 0.000000 0.000000 -1.000000
vn 0.000000 -1.000000 0.000000
vn 0.000000 -1.000000 0.000000
vn 0.000000 -1.000000 0.000000
vn 0.000000 -1.000000 0.000000
vn 1.000000 0.000000 0.000000
vn 1.000000 0.000000 0.000000
vn 1.000000 0.000000 0.000000
vn 1.000000 0.000000 0.000000
vn -1.000000 0.000000 0.000000
vn -1.000000 0.000000 0.000000
vn -1.000000 0.000000 0.000000
vn -1.000000 0.000000 0.000000
vn 0.000000 0.000000 1.000000
vn 0.000000 0.000000 1.000000
vn 0.000000 0.000000 1.000000
vn 0.000000 0.000000 1.000000
vn 0.000000 1.000000 0.000000
vn 0.000000 1.000000 0.000000
vn 0.000000 1.000000 0.000000
vn 0.000000 1.000000 0.000000
vn 0.000000 0.000000 -1.000000
vn 0.000000 0.000000 -1.000000
vn 0.000000 0.000000 -1.000000
vn 0.000000 0.000000 -1.000000
vn 0.000000 -1.000000 0.000000
vn 0.000000 -1.000000 0.000000
vn 0.000000 -1.000000 0.000000
vn 0.000000 -1.000000 0.000000
vn 1.000000 0.000000 0.000000
vn 1.000000 0.000000 0.000000
vn 1.000000 0.000000 0.000000
vn 1.000000 0.000000 0.000000
vn -1.000000 0.000000 0.000000
vn -1.000000 0.000000 0.000000
vn -1.000000 0.000000 0.000000
vn -1.000000 0.000000 0.000000
vn 0.000000 0.000000 1.000000
vn 0.000000 0.000000 1.000000
vn 0.000000 0.000000 1.000000
vn 0.000000 0.000000 1.000000
vn 0.000000 1.000000 0.000000
vn 0.000000 1.000000 0.000000
vn 0.000000 1.000000 0.000000
vn 0.000000 1.000000 0.000000
vn 0.000000 0.000000 -1.000000
vn 0.000000 0.000000 -1.000000
vn 0.000000 0.000000 -1.000000
vn 0.000000 0.000000 -1.000000
vn 0.000000 -1.000000 0.000000
vn 0.000000 -1.000000 0.000000
vn 0.000000 -1.000000 0.000000
vn 0.000000 -1.000000 0.000000
vn 1.000000 0.000000 0.000000
vn 1.000000 0.000000 0.000000
vn 1.000000 0.000000 0.000000
vn 1.000000 0.000000 0.000000
vn -1.000000 0.000000 0.000000
vn -1.000000 0.000000 0.000000
vn -1.000000 0.000000 0.000000
vn -1.000000 0.000000 0.000000
vn 0.000000 0.000000 1.000000
vn 0.000000 0.000000 1.000000
vn 0.000000 0.000000 1.000000
vn 0.000000 0.000000 1.000000
vn 0.000000 1.000000 0.000000
vn 0.000000 1.000000 0.000000
vn 0.000000 1.000000 0.000000
vn 0.000000 1.000000 0.000000
vn 0.000000 0.000000 -1.000000
vn 0.000000 0.000000 -1.000000
vn 0.000000 0.000000 -1.000000
vn 0.000000 0.000000 -1.000000
vn 0.000000 -1.000000 0.000000
vn 0.000000 -1.000000 0.000000
vn 0.000000 -1.000000 0.000000
vn 0.000000 -1.000000 0.000000
vn 1.000000 0.000000 0.000000
vn 1.000000 0.000000 0.000000
vn 1.000000 0.000000 0.000000
vn 1.000000 0.000000 0.000000
vn -1.000000 0.000000 0.000000
vn -1.000000 0.000000 0.000000
vn -1.000000 0.000000 0.000000
vn -1.000000 0.000000 0.000000
vn 0.000000 0.000000 1.000000
vn 0.000000 0.000000 1.000000
vn 0.000000 0.000000 1.000000
vn 0.000000 0.000000 1.000000
vn 0.000000 1.000000 0.000000
vn 0.000000 1.000000 0.000000
vn 0.000000 1.000000 0.000000
vn 0.000000 1.000000 0.000000
vn 0.000000 0.000000 -1.000000
vn 0.000000 0.000000 -1.000000
vn 0.000000 0.000000 -1.000000
vn 0.000000 0.000000 -1.000000
vn 0.000000 -1.000000 0.000000
vn 0.000000 -1.000000 0.000000
vn 0.000000 -1.000000 0.000000
vn 0.000000 -1.000000 0.000000
vn 1.000000 0.000000 0.000000
vn 1.000000 0.000000 0.000000
vn 1.000000 0.000000 0.000000
vn 1.000000 0.000000 0.000000
vn -1.000000 0.000000 0.000000
vn -1.000000 0.000000 0.000000
vn -1.000000 0.000000 0.000000
vn -1.000000 0.000000 0.000000
vn 0.000000 0.000000 1.000000
vn 0.000000 0.000000 1.000000
vn 0.000000 0.000000 1.000000
vn 0.000000 0.000000 1.000000
vn 0.000000 1.000000 0.000000
vn 0.000000 1.000000 0.000000
vn 0.000000 1.000000 0.000000
vn 0.000000 1.000000 0.000000
vn 0.000000 0.000000 -1.000000
vn 0.000000 0.000000 -1.000000
vn 0.000000 0.000000 -1.000000
vn 0.000000 0.000000 -1.000000
vn 0.000000 -1.000000 0.000000
vn 0.000000 -1.000000 0.000000
vn 0.000000 -1.000000 0.000000
vn 0.000000 -1.000000 0.000000
vn 1.000000 0.000000 0.000000
vn 1.000000 0.000000 0.000000
vn 1.000000 0.000000 0.000000
vn 1.000000 0.000000 0.000000
vn -1.000000 0.000000 0.000000
vn -1.000000 0.000000 0.000000
vn -1.000000 0.000000 0.000000
vn -1.000000 0.000000 0.000000
vn 0.000000 0.000000 1.000000
vn 0.000000 0.000000 1.000000
vn 0.000000 0.000000 1.000000
vn 0.000000 0.000000 1.000000
vn 0.000000 1.000000 0.000000
vn 0.000000 1.000000 0.000000
vn 0.000000 1.000000 0.000000
vn 0.000000 1.000000 0.000000
vn 0.000000 0.000000 -1.000000
vn 0.000000 0.000000 -1.000000
vn 0.000000 0.000000 -1.000000
vn 0.000000 0.000000 -1.000000
vn 0.000000 -1.000000 0.000000
vn 0.000000 -1.000000 0.000000
vn 0.000000 -1.000000 0.000000
vn 0.000000 -1.000000 0.000000
vn 1.000000 0.000000 0.000000
vn 1.000000 0.000000 0.000000
vn 1.000000 0.000000 0.000000
vn 1.000000 0.000000 0.000000
vn -1.000000 0.000000 0.000000
vn -1.000000 0.000000 0.000000
vn -1.000000 0.000000 0.000000
vn -1.000000 0.000000 0.000000
vn 0.000000 0.000000 1.000000
vn 0.000000 0.000000 1.000000
vn 0.000000 0.000000 1.000000
vn 0.000000 0.000000 1.000000
vn 0.000000 1.000000 0.000000
vn 0.000000 1.000000 0.000000
vn 0.000000 1.000000 0.000000
vn 0.000000 1.000000 0.000000
vn 0.000000 0.000000 -1.000000
vn 0.000000 0.000000 -1.000000
vn 0.000000 0.000000 -1.000000
vn 0.000000 0.000000 -1.000000
vn 0.000000 -1.000000 0.000000
vn 0.000000 -1.000000 0.000000
vn 0.000000 -1.000000 0.000000
vn 0.000000 -1.000000 0.000000
vn 1.000000 0.000000 0.000000
vn 1.000000 0.000000 0.000000
vn 1.000000 0.000000 0.000000
vn 1.000000 0.000000 0.000000
vn -1.000000 0.000000 0.000000
vn -1.000000 0.000000 0.000000
vn -1.000000 0.000000 0.000000
vn -1.000000 0.000000 0.000000
vn 0.000000 0.000000 1.000000
vn 0.000000 0.000000 1.000000
vn 0.000000 0.000000 1.000000
vn 0.000000 0.000000 1.000000
vn 0.000000 1.000000 0.000000
vn 0.000000 1.000000 0.000000
vn 0.000000 1.000000 0.000000
vn 0.000000 1.000000 0.000000
vn 0.000000 0.000000 -1.000000
vn 0.000000 0.000000 -1.000000
vn 0.000000 0.000000 -1.000000
vn 0.000000 0.000000 -1.000000
vn 0.000000 -1.000000 0.000000
vn 0.000000 -1.000000 0.000000
vn 0.000000 -1.000000 0.000000
vn 0.000000 -1.000000 0.000000
vn 1.000000 0.000000 0.000000
vn 1.000000 0.000000 0.000000
vn 1.000000 0.000000 0.000000
vn 1.000000 0.000000 0.000000
vn -1.000000 0.000000 0.000000
vn -1.000000 0.000000 0.000000
vn -1.000000 0.000000 0.000000
vn -1.000000 0.000000 0.000000
vn 0.000000 0.000000 1.000000
vn 0.000000 0.000000 1.000000
vn 0.000000 0.000000 1.000000
vn 0.000000 0.000000 1.000000
vn 0.000000 1.000000 0.000000
vn 0.000000 1.000000 0.000000
vn 0.000000 1.000000 0.000000
vn 0.000000 1.000000 0.000000
vn 0.000000 0.000000 -1.000000
vn 0.000000 0.000000 -1.000000
vn 0.000000 0.000000 -1.000000
vn 0.000000 0.000000 -1.000000
vn 0.000000 -1.000000 0.000000
vn 0.000000 -1.000000 0.000000
vn 0.000000 -1.000000 0.000000
vn 0.000000 -1.000000 0.000000
vn 1.000000 0.000000 0.000000
vn 1.000000 0.000000 0.000000
vn 1.000000 0.000000 0.000000
vn 1.000000 0.000000 0.000000
vn -1.000000 0.000000 0.000000
vn -1.000000 0.000000 0.000000
vn -1.000000 0.000000 0.000000
vn -1.000000 0.000000 0.000000
s off
g polySurface206
usemtl polySurface205SG
f 1/1/1 2/2/2 4/3/3 3/4/4
f 3/4/5 4/5/6 6/6/7 5/7/8
f 5/7/9 6/8/10 8/9/11 7/10/12
f 7/10/13 8/11/14 2/12/15 1/1/16
f 2/13/17 8/14/18 6/6/19 4/5/20
f 7/10/21 1/1/22 3/4/23 5/7/24
usemtl polySurface205SG1
f 9/15/25 10/16/26 12/17/27 11/18/28
f 11/19/29 12/20/30 14/21/31 13/22/32
f 13/22/33 14/21/34 16/23/35 15/24/36
f 15/25/37 16/26/38 10/16/39 9/15/40
f 10/27/41 16/28/42 14/21/43 12/20/44
f 15/25/45 9/15/46 11/29/47 13/30/48
f 17/31/49 18/32/50 20/33/51 19/34/52
f 19/35/53 20/36/54 22/37/55 21/38/56
f 21/38/57 22/37/58 24/39/59 23/40/60
f 23/41/61 24/42/62 18/32/63 17/31/64
f 18/32/65 24/42/66 22/43/67 20/44/68
f 23/45/69 17/46/70 19/35/71 21/38/72
f 25/47/73 26/48/74 28/49/75 27/50/76
f 27/51/77 28/52/78 30/53/79 29/54/80
f 29/54/81 30/53/82 32/55/83 31/56/84
f 31/57/85 32/58/86 26/48/87 25/47/88
f 26/48/89 32/58/90 30/59/91 28/60/92
f 31/61/93 25/62/94 27/51/95 29/54/96
f 33/63/97 34/64/98 36/65/99 35/66/100
f 35/67/101 36/68/102 38/69/103 37/70/104
f 37/70/105 38/69/106 40/71/107 39/72/108
f 39/73/109 40/74/110 34/64/111 33/63/112
f 34/64/113 40/74/114 38/75/115 36/76/116
f 39/77/117 33/78/118 35/67/119 37/70/120
f 41/79/121 42/80/122 44/81/123 43/82/124
f 43/83/125 44/84/126 46/85/127 45/86/128
f 45/86/129 46/85/130 48/87/131 47/88/132
f 47/89/133 48/90/134 42/80/135 41/79/136
f 42/80/137 48/90/138 46/91/139 44/92/140
f 47/93/141 41/94/142 43/83/143 45/86/144
f 49/95/145 50/96/146 52/97/147 51/98/148
f 51/99/149 52/100/150 54/101/151 53/102/152
f 53/102/153 54/101/154 56/103/155 55/104/156
f 55/105/157 56/106/158 50/96/159 49/95/160
f 50/96/161 56/106/162 54/107/163 52/108/164
f 55/109/165 49/110/166 51/99/167 53/102/168
f 57/111/169 58/112/170 60/113/171 59/114/172
f 59/115/173 60/116/174 62/117/175 61/118/176
f 61/118/177 62/117/178 64/119/179 63/120/180
f 63/121/181 64/122/182 58/112/183 57/111/184
f 58/112/185 64/122/186 62/123/187 60/124/188
f 63/125/189 57/126/190 59/115/191 61/118/192
f 65/127/193 66/128/194 68/129/195 67/130/196
f 67/131/197 68/132/198 70/133/199 69/134/200
f 69/134/201 70/133/202 72/135/203 71/136/204
f 71/137/205 72/138/206 66/128/207 65/127/208
f 66/128/209 72/138/210 70/139/211 68/140/212
f 71/141/213 65/142/214 67/131/215 69/134/216
f 73/143/217 74/144/218 76/145/219 75/146/220
f 75/147/221 76/148/222 78/149/223 77/150/224
f 77/150/225 78/149/226 80/151/227 79/152/228
f 79/153/229 80/154/230 74/144/231 73/143/232
f 74/144/233 80/154/234 78/155/235 76/156/236
f 79/157/237 73/158/238 75/147/239 77/150/240
f 81/159/241 82/160/242 84/161/243 83/162/244
f 83/163/245 84/164/246 86/165/247 85/166/248
f 85/166/249 86/165/250 88/167/251 87/168/252
f 87/169/253 88/170/254 82/160/255 81/159/256
f 82/160/257 88/170/258 86/171/259 84/172/260
f 87/173/261 81/174/262 83/163/263 85/166/264
f 89/175/265 90/176/266 92/177/267 91/178/268
f 91/179/269 92/180/270 94/181/271 93/182/272
f 93/182/273 94/181/274 96/183/275 95/184/276
f 95/185/277 96/186/278 90/176/279 89/175/280
f 90/176/281 96/186/282 94/187/283 92/188/284
f 95/189/285 89/190/286 91/179/287 93/182/288
f 97/191/289 98/192/290 100/193/291 99/194/292
f 99/195/293 100/196/294 102/197/295 101/198/296
f 101/198/297 102/197/298 104/199/299 103/200/300
f 103/201/301 104/202/302 98/192/303 97/191/304
f 98/203/305 104/204/306 102/197/307 100/196/308
f 103/201/309 97/191/310 99/205/311 101/206/312
f 105/207/313 106/208/314 108/209/315 107/210/316
f 107/211/317 108/212/318 110/213/319 109/214/320
f 109/214/321 110/213/322 112/215/323 111/216/324
f 111/217/325 112/218/326 106/208/327 105/207/328
f 106/219/329 112/220/330 110/213/331 108/212/332
f 111/217/333 105/207/334 107/221/335 109/222/336
