# This file uses centimeters as units for non-parametric coordinates.

mtllib midframeLP.mtl
g default
v 0.040230 -0.499988 0.446465
v 0.040230 -0.499988 0.374349
v -0.031886 -0.499988 0.374349
v -0.031886 -0.499988 0.446465
v 0.040230 0.401045 0.446465
v 0.040230 0.401045 0.374349
v -0.031886 0.401045 0.374349
v -0.031886 0.401045 0.446465
v 0.040230 -0.499988 -0.418867
v 0.040230 -0.499988 -0.490983
v -0.031886 -0.499988 -0.490983
v -0.031886 -0.499988 -0.418867
v 0.040230 0.401045 -0.418867
v 0.040230 0.401045 -0.490983
v -0.031886 0.401045 -0.490983
v -0.031886 0.401045 -0.418867
v 0.022120 -0.448894 0.374349
v 0.022120 -0.484790 0.374349
v -0.013776 -0.484790 0.374349
v -0.013776 -0.448894 0.374349
v 0.022120 -0.448894 -0.418867
v 0.022120 -0.484790 -0.418867
v -0.013776 -0.484790 -0.418867
v -0.013776 -0.448894 -0.418867
v 0.024728 -0.355369 0.420696
v 0.024728 -0.389046 0.397115
v -0.016384 -0.389046 0.397115
v -0.016384 -0.355369 0.420696
v 0.024728 0.248441 -0.441634
v 0.024728 0.214764 -0.465215
v -0.016384 0.214764 -0.465215
v -0.016384 0.248441 -0.441634
vt 0.075599 0.003808
vt 0.149275 0.003808
vt 0.149275 0.924332
vt 0.075599 0.924332
vt 0.222951 0.924332
vt 0.149275 0.998008
vt 0.001923 0.003808
vt 0.222951 0.003808
vt 0.001923 0.924332
vt 0.296627 0.003808
vt 0.296627 0.924332
vt 0.222951 0.998008
vt 0.376050 0.003808
vt 0.449726 0.003808
vt 0.449726 0.924332
vt 0.376050 0.924332
vt 0.523402 0.924332
vt 0.523402 0.003808
vt 0.597078 0.003808
vt 0.597078 0.924332
vt 0.302374 0.003808
vt 0.302374 0.924332
vt 0.523402 0.998008
vt 0.449727 0.998008
vt 0.646958 0.004227
vt 0.691090 0.004227
vt 0.691090 0.555618
vt 0.646958 0.555618
vt 0.735221 0.555618
vt 0.735221 0.004227
vt 0.779353 0.004227
vt 0.779353 0.555618
vt 0.602826 0.004227
vt 0.602826 0.555618
vt 0.831104 0.001992
vt 0.875235 0.001992
vt 0.875235 0.553383
vt 0.831104 0.553383
vt 0.919367 0.553383
vt 0.919367 0.001992
vt 0.963499 0.001992
vt 0.963499 0.553383
vt 0.786972 0.001992
vt 0.786972 0.553383
vn 1.000000 0.000000 0.000000
vn 1.000000 0.000000 0.000000
vn 1.000000 0.000000 0.000000
vn 1.000000 0.000000 0.000000
vn 0.000000 0.000000 -1.000000
vn 0.000000 0.000000 -1.000000
vn 0.000000 0.000000 -1.000000
vn 0.000000 0.000000 -1.000000
vn -1.000000 0.000000 0.000000
vn -1.000000 0.000000 0.000000
vn -1.000000 0.000000 0.000000
vn -1.000000 0.000000 0.000000
vn 0.000000 0.000000 1.000000
vn 0.000000 0.000000 1.000000
vn 0.000000 0.000000 1.000000
vn 0.000000 0.000000 1.000000
vn 0.000000 1.000000 0.000000
vn 0.000000 1.000000 0.000000
vn 0.000000 1.000000 0.000000
vn 0.000000 1.000000 0.000000
vn 1.000000 0.000000 0.000000
vn 1.000000 0.000000 0.000000
vn 1.000000 0.000000 0.000000
vn 1.000000 0.000000 0.000000
vn 0.000000 0.000000 -1.000000
vn 0.000000 0.000000 -1.000000
vn 0.000000 0.000000 -1.000000
vn 0.000000 0.000000 -1.000000
vn -1.000000 0.000000 0.000000
vn -1.000000 0.000000 0.000000
vn -1.000000 0.000000 0.000000
vn -1.000000 0.000000 0.000000
vn 0.000000 0.000000 1.000000
vn 0.000000 0.000000 1.000000
vn 0.000000 0.000000 1.000000
vn 0.000000 0.000000 1.000000
vn 0.000000 1.000000 0.000000
vn 0.000000 1.000000 0.000000
vn 0.000000 1.000000 0.000000
vn 0.000000 1.000000 0.000000
vn 1.000000 0.000000 0.000000
vn 1.000000 0.000000 0.000000
vn 1.000000 0.000000 0.000000
vn 1.000000 0.000000 0.000000
vn 0.000000 -1.000000 -0.000000
vn 0.000000 -1.000000 -0.000000
vn 0.000000 -1.000000 -0.000000
vn 0.000000 -1.000000 -0.000000
vn -1.000000 0.000000 0.000000
vn -1.000000 0.000000 0.000000
vn -1.000000 0.000000 0.000000
vn -1.000000 0.000000 0.000000
vn 0.000000 1.000000 0.000000
vn 0.000000 1.000000 0.000000
vn 0.000000 1.000000 0.000000
vn 0.000000 1.000000 0.000000
vn 1.000000 0.000000 0.000000
vn 1.000000 0.000000 0.000000
vn 1.000000 0.000000 0.000000
vn 1.000000 0.000000 0.000000
vn 0.000000 -0.819152 -0.573576
vn 0.000000 -0.819152 -0.573576
vn 0.000000 -0.819152 -0.573576
vn 0.000000 -0.819152 -0.573576
vn -1.000000 0.000000 0.000000
vn -1.000000 0.000000 0.000000
vn -1.000000 0.000000 0.000000
vn -1.000000 0.000000 0.000000
vn 0.000000 0.819152 0.573576
vn 0.000000 0.819152 0.573576
vn 0.000000 0.819152 0.573576
vn 0.000000 0.819152 0.573576
s off
g polySurface3
usemtl initialShadingGroup
f 1/1/1 2/2/2 6/3/3 5/4/4
f 7/5/5 6/3/6 2/2/7 3/8/8
f 3/8/9 4/10/10 8/11/11 7/5/12
f 4/7/13 1/1/14 5/4/15 8/9/16
f 6/3/17 7/5/18 8/12/19 5/6/20
f 9/13/21 10/14/22 14/15/23 13/16/24
f 15/17/25 14/15/26 10/14/27 11/18/28
f 11/18/29 12/19/30 16/20/31 15/17/32
f 12/21/33 9/13/34 13/16/35 16/22/36
f 14/15/37 15/17/38 16/23/39 13/24/40
f 17/25/41 18/26/42 22/27/43 21/28/44
f 23/29/45 22/27/46 18/26/47 19/30/48
f 19/30/49 20/31/50 24/32/51 23/29/52
f 20/33/53 17/25/54 21/28/55 24/34/56
f 25/35/57 26/36/58 30/37/59 29/38/60
f 31/39/61 30/37/62 26/36/63 27/40/64
f 27/40/65 28/41/66 32/42/67 31/39/68
f 28/43/69 25/35/70 29/38/71 32/44/72
