# This file uses centimeters as units for non-parametric coordinates.

mtllib 1by1.mtl
g default
v -0.468387 0.000000 0.468387
v 0.468387 0.000000 0.468387
v 0.468387 0.936773 0.468387
v -0.468387 0.936773 0.468387
vt 0.001992 0.001992
vt 0.998008 0.001992
vt 0.998008 0.998008
vt 0.001992 0.998008
vn 0.000000 0.000000 1.000000
vn 0.000000 0.000000 1.000000
vn 0.000000 0.000000 1.000000
vn 0.000000 0.000000 1.000000
s off
g polySurface19 group1
usemtl lambert8SG
f 1/1/1 2/2/2 3/3/3 4/4/4
g default
v -0.468387 0.936773 -0.468387
v 0.468387 0.936773 -0.468387
v 0.468387 0.000000 -0.468387
v -0.468387 0.000000 -0.468387
vt 0.998008 0.998008
vt 0.001992 0.998008
vt 0.001992 0.001992
vt 0.998008 0.001992
vn 0.000000 0.000000 -1.000000
vn 0.000000 0.000000 -1.000000
vn 0.000000 0.000000 -1.000000
vn 0.000000 0.000000 -1.000000
s off
g group1 polySurface27
usemtl lambert9SG
f 5/5/5 6/6/6 7/7/7 8/8/8
g default
v -0.468387 0.936773 0.468387
v 0.468387 0.936773 0.468387
v -0.468387 0.936773 -0.468387
v 0.468387 0.936773 -0.468387
vt 0.001992 0.001992
vt 0.998008 0.001992
vt 0.998008 0.998008
vt 0.001992 0.998008
vn 0.000000 1.000000 0.000000
vn 0.000000 1.000000 0.000000
vn 0.000000 1.000000 0.000000
vn 0.000000 1.000000 0.000000
s off
g group1 polySurface29
usemtl lambert6SG
f 9/9/9 10/10/10 12/11/11 11/12/12
g default
v -0.468387 0.000000 0.468387
v 0.468387 0.000000 0.468387
v -0.468387 0.000000 -0.468387
v 0.468387 0.000000 -0.468387
vt 0.998008 0.998008
vt 0.001992 0.998008
vt 0.001992 0.001992
vt 0.998008 0.001992
vn 0.000000 -1.000000 0.000000
vn 0.000000 -1.000000 0.000000
vn 0.000000 -1.000000 0.000000
vn 0.000000 -1.000000 0.000000
s off
g group1 polySurface30
usemtl initialShadingGroup
f 15/13/13 16/14/14 14/15/15 13/16/16
g default
v 0.468387 0.000000 0.468387
v 0.468387 0.000000 -0.468387
v 0.468387 0.936773 -0.468387
v 0.468387 0.936773 0.468387
v -0.468387 0.000000 -0.468387
v -0.468387 0.000000 0.468387
v -0.468387 0.936773 0.468387
v -0.468387 0.936773 -0.468387
vt 0.001992 0.001992
vt 0.998008 0.001992
vt 0.998008 0.998008
vt 0.001992 0.998008
vt 0.998008 0.001992
vt 0.001992 0.001992
vt 0.001992 0.998008
vt 0.998008 0.998008
vn 1.000000 0.000000 0.000000
vn 1.000000 0.000000 0.000000
vn 1.000000 0.000000 0.000000
vn 1.000000 0.000000 0.000000
vn -1.000000 0.000000 0.000000
vn -1.000000 0.000000 0.000000
vn -1.000000 0.000000 0.000000
vn -1.000000 0.000000 0.000000
s off
g group1 polySurface24
usemtl lambert7SG
f 17/17/17 18/18/18 19/19/19 20/20/20
f 21/21/21 22/22/22 23/23/23 24/24/24
